<svg width="1501" height="381" viewBox="0 0 1501 381" fill="none" xmlns="http://www.w3.org/2000/svg">
<path opacity="0.2" d="M46.6886 253.312C36.4814 129.672 140.254 -120.352 324.791 187.743C485.374 455.846 472.119 -67.2997 656.693 209.332C843.626 489.5 880.996 -132.907 1237.73 148.561C1265.59 165.886 1339.7 186.943 1413.2 132.568C1427.27 119.241 1462.53 102.343 1491 141.364" stroke="#F3F1F2" stroke-width="1.5" stroke-dasharray="5 5"/>
<circle cx="47" cy="256" r="11" fill="#10302A"/>
<circle cx="47" cy="256" r="10.25" stroke="#F3F1F2" stroke-opacity="0.2" stroke-width="1.5"/>
<circle cx="1488" cy="138" r="11" fill="#10302A"/>
<circle cx="1488" cy="138" r="10.25" stroke="#F3F1F2" stroke-opacity="0.2" stroke-width="1.5"/>
<path d="M11.5 254.5C31.971 154.622 141.208 -28.4146 304.976 97.9268C463.102 219.915 451.685 300.244 700.749 109.024C949.813 -82.1951 947.355 422.024 1267.11 118.415C1300.38 86.8293 1376.29 23.6585 1494 10" stroke="#B4E717" stroke-width="1.5"/>
<circle cx="11" cy="256" r="10.25" fill="#10302A" stroke="#B4E717" stroke-width="1.5"/>
<ellipse cx="210.61" cy="56.2203" rx="16.2008" ry="16.2203" fill="#10302A"/>
<path d="M210.61 40.75C219.143 40.7502 226.061 47.6759 226.061 56.2207C226.06 64.7653 219.142 71.6902 210.61 71.6904C202.078 71.6904 195.159 64.7654 195.159 56.2207C195.159 47.6758 202.078 40.75 210.61 40.75Z" stroke="#F3F1F2" stroke-opacity="0.2" stroke-width="1.5"/>
<ellipse cx="210.611" cy="56.2203" rx="7.67406" ry="7.6832" fill="#B4E717"/>
<path opacity="0.5" d="M185.264 25.216C184.136 25.216 183.164 24.946 182.348 24.406C181.544 23.854 180.926 23.092 180.494 22.12C180.062 21.136 179.846 19.996 179.846 18.7C179.846 17.404 180.062 16.27 180.494 15.298C180.926 14.314 181.544 13.552 182.348 13.012C183.164 12.46 184.136 12.184 185.264 12.184C186.38 12.184 187.34 12.46 188.144 13.012C188.948 13.552 189.566 14.314 189.998 15.298C190.43 16.27 190.646 17.404 190.646 18.7C190.646 19.996 190.43 21.136 189.998 22.12C189.566 23.092 188.948 23.854 188.144 24.406C187.34 24.946 186.38 25.216 185.264 25.216ZM185.246 23.614C185.942 23.614 186.554 23.416 187.082 23.02C187.622 22.624 188.042 22.06 188.342 21.328C188.654 20.596 188.81 19.72 188.81 18.7C188.81 17.68 188.654 16.804 188.342 16.072C188.042 15.34 187.622 14.782 187.082 14.398C186.554 14.002 185.942 13.804 185.246 13.804C184.562 13.804 183.95 14.002 183.41 14.398C182.87 14.782 182.444 15.34 182.132 16.072C181.832 16.804 181.682 17.68 181.682 18.7C181.682 19.72 181.832 20.596 182.132 21.328C182.444 22.06 182.87 22.624 183.41 23.02C183.95 23.416 184.562 23.614 185.246 23.614ZM192.703 25.09C192.367 25.09 192.085 24.982 191.857 24.766C191.629 24.538 191.515 24.268 191.515 23.956C191.515 23.632 191.629 23.362 191.857 23.146C192.085 22.918 192.367 22.804 192.703 22.804C193.051 22.804 193.333 22.918 193.549 23.146C193.765 23.362 193.873 23.632 193.873 23.956C193.873 24.268 193.765 24.538 193.549 24.766C193.333 24.982 193.051 25.09 192.703 25.09ZM196.368 25L201.228 13.948H194.568V12.4H203.064V13.714L198.258 25H196.368ZM208.857 25.216C207.981 25.216 207.219 25.06 206.571 24.748C205.923 24.424 205.413 23.986 205.041 23.434C204.669 22.882 204.447 22.264 204.375 21.58H206.121C206.253 22.192 206.559 22.696 207.039 23.092C207.519 23.488 208.131 23.686 208.875 23.686C209.415 23.686 209.883 23.554 210.279 23.29C210.675 23.026 210.981 22.672 211.197 22.228C211.425 21.784 211.539 21.286 211.539 20.734C211.539 20.158 211.425 19.66 211.197 19.24C210.981 18.808 210.675 18.472 210.279 18.232C209.883 17.992 209.427 17.872 208.911 17.872C208.287 17.872 207.747 18.016 207.291 18.304C206.835 18.58 206.505 18.946 206.301 19.402H204.573L205.635 12.4H212.403V13.966H207.003L206.337 17.494C206.625 17.17 207.009 16.906 207.489 16.702C207.981 16.486 208.539 16.378 209.163 16.378C209.799 16.378 210.369 16.492 210.873 16.72C211.377 16.936 211.809 17.242 212.169 17.638C212.529 18.034 212.799 18.496 212.979 19.024C213.171 19.552 213.267 20.116 213.267 20.716C213.267 21.34 213.165 21.928 212.961 22.48C212.757 23.02 212.463 23.5 212.079 23.92C211.695 24.328 211.233 24.646 210.693 24.874C210.153 25.102 209.541 25.216 208.857 25.216ZM219.335 26.818L223.853 11.158H225.617L221.099 26.818H219.335ZM232.011 25V12.4H236.295C237.279 12.4 238.089 12.568 238.725 12.904C239.361 13.24 239.835 13.69 240.147 14.254C240.459 14.806 240.615 15.436 240.615 16.144C240.615 16.816 240.459 17.44 240.147 18.016C239.835 18.58 239.355 19.036 238.707 19.384C238.071 19.72 237.243 19.888 236.223 19.888H233.811V25H232.011ZM238.635 25L235.917 19.402H237.915L240.741 25H238.635ZM233.811 18.52H236.169C237.057 18.52 237.711 18.304 238.131 17.872C238.551 17.428 238.761 16.864 238.761 16.18C238.761 15.484 238.557 14.932 238.149 14.524C237.741 14.116 237.075 13.912 236.151 13.912H233.811V18.52Z" fill="#F3F1F2"/>
<path opacity="0.5" d="M727.264 47.216C726.136 47.216 725.164 46.946 724.348 46.406C723.544 45.854 722.926 45.092 722.494 44.12C722.062 43.136 721.846 41.996 721.846 40.7C721.846 39.404 722.062 38.27 722.494 37.298C722.926 36.314 723.544 35.552 724.348 35.012C725.164 34.46 726.136 34.184 727.264 34.184C728.38 34.184 729.34 34.46 730.144 35.012C730.948 35.552 731.566 36.314 731.998 37.298C732.43 38.27 732.646 39.404 732.646 40.7C732.646 41.996 732.43 43.136 731.998 44.12C731.566 45.092 730.948 45.854 730.144 46.406C729.34 46.946 728.38 47.216 727.264 47.216ZM727.246 45.614C727.942 45.614 728.554 45.416 729.082 45.02C729.622 44.624 730.042 44.06 730.342 43.328C730.654 42.596 730.81 41.72 730.81 40.7C730.81 39.68 730.654 38.804 730.342 38.072C730.042 37.34 729.622 36.782 729.082 36.398C728.554 36.002 727.942 35.804 727.246 35.804C726.562 35.804 725.95 36.002 725.41 36.398C724.87 36.782 724.444 37.34 724.132 38.072C723.832 38.804 723.682 39.68 723.682 40.7C723.682 41.72 723.832 42.596 724.132 43.328C724.444 44.06 724.87 44.624 725.41 45.02C725.95 45.416 726.562 45.614 727.246 45.614ZM734.703 47.09C734.367 47.09 734.085 46.982 733.857 46.766C733.629 46.538 733.515 46.268 733.515 45.956C733.515 45.632 733.629 45.362 733.857 45.146C734.085 44.918 734.367 44.804 734.703 44.804C735.051 44.804 735.333 44.918 735.549 45.146C735.765 45.362 735.873 45.632 735.873 45.956C735.873 46.268 735.765 46.538 735.549 46.766C735.333 46.982 735.051 47.09 734.703 47.09ZM738.368 47L743.228 35.948H736.568V34.4H745.064V35.714L740.258 47H738.368ZM750.857 47.216C749.981 47.216 749.219 47.06 748.571 46.748C747.923 46.424 747.413 45.986 747.041 45.434C746.669 44.882 746.447 44.264 746.375 43.58H748.121C748.253 44.192 748.559 44.696 749.039 45.092C749.519 45.488 750.131 45.686 750.875 45.686C751.415 45.686 751.883 45.554 752.279 45.29C752.675 45.026 752.981 44.672 753.197 44.228C753.425 43.784 753.539 43.286 753.539 42.734C753.539 42.158 753.425 41.66 753.197 41.24C752.981 40.808 752.675 40.472 752.279 40.232C751.883 39.992 751.427 39.872 750.911 39.872C750.287 39.872 749.747 40.016 749.291 40.304C748.835 40.58 748.505 40.946 748.301 41.402H746.573L747.635 34.4H754.403V35.966H749.003L748.337 39.494C748.625 39.17 749.009 38.906 749.489 38.702C749.981 38.486 750.539 38.378 751.163 38.378C751.799 38.378 752.369 38.492 752.873 38.72C753.377 38.936 753.809 39.242 754.169 39.638C754.529 40.034 754.799 40.496 754.979 41.024C755.171 41.552 755.267 42.116 755.267 42.716C755.267 43.34 755.165 43.928 754.961 44.48C754.757 45.02 754.463 45.5 754.079 45.92C753.695 46.328 753.233 46.646 752.693 46.874C752.153 47.102 751.541 47.216 750.857 47.216ZM761.335 48.818L765.853 33.158H767.617L763.099 48.818H761.335ZM774.011 47V34.4H778.295C779.279 34.4 780.089 34.568 780.725 34.904C781.361 35.24 781.835 35.69 782.147 36.254C782.459 36.806 782.615 37.436 782.615 38.144C782.615 38.816 782.459 39.44 782.147 40.016C781.835 40.58 781.355 41.036 780.707 41.384C780.071 41.72 779.243 41.888 778.223 41.888H775.811V47H774.011ZM780.635 47L777.917 41.402H779.915L782.741 47H780.635ZM775.811 40.52H778.169C779.057 40.52 779.711 40.304 780.131 39.872C780.551 39.428 780.761 38.864 780.761 38.18C780.761 37.484 780.557 36.932 780.149 36.524C779.741 36.116 779.075 35.912 778.151 35.912H775.811V40.52Z" fill="#F3F1F2"/>
<path opacity="0.5" d="M1310.26 33.216C1309.14 33.216 1308.16 32.946 1307.35 32.406C1306.54 31.854 1305.93 31.092 1305.49 30.12C1305.06 29.136 1304.85 27.996 1304.85 26.7C1304.85 25.404 1305.06 24.27 1305.49 23.298C1305.93 22.314 1306.54 21.552 1307.35 21.012C1308.16 20.46 1309.14 20.184 1310.26 20.184C1311.38 20.184 1312.34 20.46 1313.14 21.012C1313.95 21.552 1314.57 22.314 1315 23.298C1315.43 24.27 1315.65 25.404 1315.65 26.7C1315.65 27.996 1315.43 29.136 1315 30.12C1314.57 31.092 1313.95 31.854 1313.14 32.406C1312.34 32.946 1311.38 33.216 1310.26 33.216ZM1310.25 31.614C1310.94 31.614 1311.55 31.416 1312.08 31.02C1312.62 30.624 1313.04 30.06 1313.34 29.328C1313.65 28.596 1313.81 27.72 1313.81 26.7C1313.81 25.68 1313.65 24.804 1313.34 24.072C1313.04 23.34 1312.62 22.782 1312.08 22.398C1311.55 22.002 1310.94 21.804 1310.25 21.804C1309.56 21.804 1308.95 22.002 1308.41 22.398C1307.87 22.782 1307.44 23.34 1307.13 24.072C1306.83 24.804 1306.68 25.68 1306.68 26.7C1306.68 27.72 1306.83 28.596 1307.13 29.328C1307.44 30.06 1307.87 30.624 1308.41 31.02C1308.95 31.416 1309.56 31.614 1310.25 31.614ZM1317.7 33.09C1317.37 33.09 1317.09 32.982 1316.86 32.766C1316.63 32.538 1316.52 32.268 1316.52 31.956C1316.52 31.632 1316.63 31.362 1316.86 31.146C1317.09 30.918 1317.37 30.804 1317.7 30.804C1318.05 30.804 1318.33 30.918 1318.55 31.146C1318.77 31.362 1318.87 31.632 1318.87 31.956C1318.87 32.268 1318.77 32.538 1318.55 32.766C1318.33 32.982 1318.05 33.09 1317.7 33.09ZM1321.37 33L1326.23 21.948H1319.57V20.4H1328.06V21.714L1323.26 33H1321.37ZM1333.86 33.216C1332.98 33.216 1332.22 33.06 1331.57 32.748C1330.92 32.424 1330.41 31.986 1330.04 31.434C1329.67 30.882 1329.45 30.264 1329.38 29.58H1331.12C1331.25 30.192 1331.56 30.696 1332.04 31.092C1332.52 31.488 1333.13 31.686 1333.88 31.686C1334.42 31.686 1334.88 31.554 1335.28 31.29C1335.68 31.026 1335.98 30.672 1336.2 30.228C1336.43 29.784 1336.54 29.286 1336.54 28.734C1336.54 28.158 1336.43 27.66 1336.2 27.24C1335.98 26.808 1335.68 26.472 1335.28 26.232C1334.88 25.992 1334.43 25.872 1333.91 25.872C1333.29 25.872 1332.75 26.016 1332.29 26.304C1331.84 26.58 1331.51 26.946 1331.3 27.402H1329.57L1330.64 20.4H1337.4V21.966H1332L1331.34 25.494C1331.63 25.17 1332.01 24.906 1332.49 24.702C1332.98 24.486 1333.54 24.378 1334.16 24.378C1334.8 24.378 1335.37 24.492 1335.87 24.72C1336.38 24.936 1336.81 25.242 1337.17 25.638C1337.53 26.034 1337.8 26.496 1337.98 27.024C1338.17 27.552 1338.27 28.116 1338.27 28.716C1338.27 29.34 1338.17 29.928 1337.96 30.48C1337.76 31.02 1337.46 31.5 1337.08 31.92C1336.7 32.328 1336.23 32.646 1335.69 32.874C1335.15 33.102 1334.54 33.216 1333.86 33.216ZM1344.34 34.818L1348.85 19.158H1350.62L1346.1 34.818H1344.34ZM1357.01 33V20.4H1361.29C1362.28 20.4 1363.09 20.568 1363.72 20.904C1364.36 21.24 1364.83 21.69 1365.15 22.254C1365.46 22.806 1365.61 23.436 1365.61 24.144C1365.61 24.816 1365.46 25.44 1365.15 26.016C1364.83 26.58 1364.35 27.036 1363.71 27.384C1363.07 27.72 1362.24 27.888 1361.22 27.888H1358.81V33H1357.01ZM1363.63 33L1360.92 27.402H1362.91L1365.74 33H1363.63ZM1358.81 26.52H1361.17C1362.06 26.52 1362.71 26.304 1363.13 25.872C1363.55 25.428 1363.76 24.864 1363.76 24.18C1363.76 23.484 1363.56 22.932 1363.15 22.524C1362.74 22.116 1362.07 21.912 1361.15 21.912H1358.81V26.52Z" fill="#F3F1F2"/>
<ellipse cx="751.201" cy="77.9838" rx="16.2008" ry="15.9838" fill="#10302A"/>
<path d="M751.201 62.75C759.744 62.7502 766.651 69.5798 766.651 77.9834C766.651 86.3871 759.744 93.2176 751.201 93.2178C742.658 93.2178 735.75 86.3873 735.75 77.9834C735.75 69.5797 742.658 62.75 751.201 62.75Z" stroke="#F3F1F2" stroke-opacity="0.2" stroke-width="1.5"/>
<ellipse cx="751.201" cy="77.9834" rx="7.67406" ry="7.57125" fill="#B4E717"/>
<ellipse cx="1336.14" cy="64.4839" rx="16.2008" ry="16.4839" fill="#10302A"/>
<path d="M1336.14 48.75C1344.66 48.7502 1351.59 55.7819 1351.59 64.4834C1351.59 73.1852 1344.66 80.2176 1336.14 80.2178C1327.62 80.2178 1320.69 73.1853 1320.69 64.4834C1320.69 55.7817 1327.62 48.75 1336.14 48.75Z" stroke="#F3F1F2" stroke-opacity="0.2" stroke-width="1.5"/>
<ellipse cx="1336.14" cy="64.4839" rx="7.67406" ry="7.80809" fill="#B4E717"/>
<circle cx="1488" cy="11" r="10.25" fill="#10302A" stroke="#B4E717" stroke-width="1.5"/>
<g opacity="0.2">
<line y1="332.348" x2="1499" y2="332.348" stroke="white" stroke-width="1.5"/>
<line x1="0.75" y1="322.865" x2="0.749999" y2="341.624" stroke="white" stroke-width="1.5"/>
<line x1="1499.75" y1="322.865" x2="1499.75" y2="341.624" stroke="white" stroke-width="1.5"/>
<line x1="500.417" y1="322.865" x2="500.417" y2="341.624" stroke="white" stroke-width="1.5"/>
<line x1="1000.08" y1="322.865" x2="1000.08" y2="341.624" stroke="white" stroke-width="1.5"/>
<line x1="249.73" y1="310.074" x2="249.73" y2="354.413" stroke="white" stroke-width="1.5"/>
<line x1="752.397" y1="310.074" x2="752.397" y2="354.413" stroke="white" stroke-width="1.5"/>
<line x1="1249.06" y1="310.074" x2="1249.06" y2="354.413" stroke="white" stroke-width="1.5"/>
</g>
<path opacity="0.2" d="M228.062 380V378.704C228.89 378.056 229.676 377.402 230.42 376.742C231.176 376.082 231.848 375.428 232.436 374.78C233.036 374.12 233.504 373.478 233.84 372.854C234.188 372.218 234.362 371.612 234.362 371.036C234.362 370.628 234.29 370.25 234.146 369.902C234.002 369.554 233.774 369.272 233.462 369.056C233.15 368.828 232.724 368.714 232.184 368.714C231.68 368.714 231.254 368.828 230.906 369.056C230.558 369.284 230.294 369.59 230.114 369.974C229.946 370.346 229.862 370.76 229.862 371.216H228.134C228.146 370.352 228.332 369.62 228.692 369.02C229.052 368.42 229.538 367.964 230.15 367.652C230.762 367.34 231.458 367.184 232.238 367.184C233.03 367.184 233.72 367.334 234.308 367.634C234.896 367.922 235.352 368.348 235.676 368.912C236 369.464 236.162 370.142 236.162 370.946C236.162 371.522 236.048 372.098 235.82 372.674C235.592 373.238 235.28 373.79 234.884 374.33C234.5 374.87 234.068 375.392 233.588 375.896C233.108 376.388 232.61 376.856 232.094 377.3C231.59 377.744 231.11 378.146 230.654 378.506H236.54V380H228.062ZM243.477 380.216C242.349 380.216 241.377 379.946 240.561 379.406C239.757 378.854 239.139 378.092 238.707 377.12C238.275 376.136 238.059 374.996 238.059 373.7C238.059 372.404 238.275 371.27 238.707 370.298C239.139 369.314 239.757 368.552 240.561 368.012C241.377 367.46 242.349 367.184 243.477 367.184C244.593 367.184 245.553 367.46 246.357 368.012C247.161 368.552 247.779 369.314 248.211 370.298C248.643 371.27 248.859 372.404 248.859 373.7C248.859 374.996 248.643 376.136 248.211 377.12C247.779 378.092 247.161 378.854 246.357 379.406C245.553 379.946 244.593 380.216 243.477 380.216ZM243.459 378.614C244.155 378.614 244.767 378.416 245.295 378.02C245.835 377.624 246.255 377.06 246.555 376.328C246.867 375.596 247.023 374.72 247.023 373.7C247.023 372.68 246.867 371.804 246.555 371.072C246.255 370.34 245.835 369.782 245.295 369.398C244.767 369.002 244.155 368.804 243.459 368.804C242.775 368.804 242.163 369.002 241.623 369.398C241.083 369.782 240.657 370.34 240.345 371.072C240.045 371.804 239.895 372.68 239.895 373.7C239.895 374.72 240.045 375.596 240.345 376.328C240.657 377.06 241.083 377.624 241.623 378.02C242.163 378.416 242.775 378.614 243.459 378.614ZM250.632 380V378.704C251.46 378.056 252.246 377.402 252.99 376.742C253.746 376.082 254.418 375.428 255.006 374.78C255.606 374.12 256.074 373.478 256.41 372.854C256.758 372.218 256.932 371.612 256.932 371.036C256.932 370.628 256.86 370.25 256.716 369.902C256.572 369.554 256.344 369.272 256.032 369.056C255.72 368.828 255.294 368.714 254.754 368.714C254.25 368.714 253.824 368.828 253.476 369.056C253.128 369.284 252.864 369.59 252.684 369.974C252.516 370.346 252.432 370.76 252.432 371.216H250.704C250.716 370.352 250.902 369.62 251.262 369.02C251.622 368.42 252.108 367.964 252.72 367.652C253.332 367.34 254.028 367.184 254.808 367.184C255.6 367.184 256.29 367.334 256.878 367.634C257.466 367.922 257.922 368.348 258.246 368.912C258.57 369.464 258.732 370.142 258.732 370.946C258.732 371.522 258.618 372.098 258.39 372.674C258.162 373.238 257.85 373.79 257.454 374.33C257.07 374.87 256.638 375.392 256.158 375.896C255.678 376.388 255.18 376.856 254.664 377.3C254.16 377.744 253.68 378.146 253.224 378.506H259.11V380H250.632ZM265.234 380.216C264.418 380.216 263.68 380.072 263.02 379.784C262.36 379.484 261.832 379.04 261.436 378.452C261.04 377.852 260.83 377.102 260.806 376.202H262.606C262.618 376.658 262.726 377.072 262.93 377.444C263.146 377.816 263.446 378.116 263.83 378.344C264.214 378.56 264.682 378.668 265.234 378.668C265.762 378.668 266.206 378.566 266.566 378.362C266.938 378.158 267.22 377.882 267.412 377.534C267.604 377.186 267.7 376.796 267.7 376.364C267.7 375.824 267.568 375.386 267.304 375.05C267.052 374.714 266.704 374.462 266.26 374.294C265.816 374.114 265.33 374.024 264.802 374.024H263.866V372.53H264.802C265.546 372.53 266.14 372.356 266.584 372.008C267.028 371.66 267.25 371.168 267.25 370.532C267.25 370.004 267.076 369.572 266.728 369.236C266.392 368.9 265.888 368.732 265.216 368.732C264.556 368.732 264.034 368.924 263.65 369.308C263.266 369.692 263.044 370.178 262.984 370.766H261.202C261.238 370.058 261.424 369.434 261.76 368.894C262.108 368.342 262.576 367.922 263.164 367.634C263.752 367.334 264.442 367.184 265.234 367.184C266.062 367.184 266.758 367.334 267.322 367.634C267.898 367.922 268.33 368.312 268.618 368.804C268.906 369.296 269.05 369.83 269.05 370.406C269.05 370.85 268.966 371.264 268.798 371.648C268.642 372.032 268.408 372.362 268.096 372.638C267.784 372.914 267.406 373.106 266.962 373.214C267.454 373.31 267.886 373.502 268.258 373.79C268.642 374.066 268.942 374.426 269.158 374.87C269.374 375.302 269.482 375.806 269.482 376.382C269.482 377.066 269.32 377.702 268.996 378.29C268.672 378.866 268.192 379.334 267.556 379.694C266.932 380.042 266.158 380.216 265.234 380.216Z" fill="white"/>
<path opacity="0.2" d="M731.062 380V378.704C731.89 378.056 732.676 377.402 733.42 376.742C734.176 376.082 734.848 375.428 735.436 374.78C736.036 374.12 736.504 373.478 736.84 372.854C737.188 372.218 737.362 371.612 737.362 371.036C737.362 370.628 737.29 370.25 737.146 369.902C737.002 369.554 736.774 369.272 736.462 369.056C736.15 368.828 735.724 368.714 735.184 368.714C734.68 368.714 734.254 368.828 733.906 369.056C733.558 369.284 733.294 369.59 733.114 369.974C732.946 370.346 732.862 370.76 732.862 371.216H731.134C731.146 370.352 731.332 369.62 731.692 369.02C732.052 368.42 732.538 367.964 733.15 367.652C733.762 367.34 734.458 367.184 735.238 367.184C736.03 367.184 736.72 367.334 737.308 367.634C737.896 367.922 738.352 368.348 738.676 368.912C739 369.464 739.162 370.142 739.162 370.946C739.162 371.522 739.048 372.098 738.82 372.674C738.592 373.238 738.28 373.79 737.884 374.33C737.5 374.87 737.068 375.392 736.588 375.896C736.108 376.388 735.61 376.856 735.094 377.3C734.59 377.744 734.11 378.146 733.654 378.506H739.54V380H731.062ZM746.477 380.216C745.349 380.216 744.377 379.946 743.561 379.406C742.757 378.854 742.139 378.092 741.707 377.12C741.275 376.136 741.059 374.996 741.059 373.7C741.059 372.404 741.275 371.27 741.707 370.298C742.139 369.314 742.757 368.552 743.561 368.012C744.377 367.46 745.349 367.184 746.477 367.184C747.593 367.184 748.553 367.46 749.357 368.012C750.161 368.552 750.779 369.314 751.211 370.298C751.643 371.27 751.859 372.404 751.859 373.7C751.859 374.996 751.643 376.136 751.211 377.12C750.779 378.092 750.161 378.854 749.357 379.406C748.553 379.946 747.593 380.216 746.477 380.216ZM746.459 378.614C747.155 378.614 747.767 378.416 748.295 378.02C748.835 377.624 749.255 377.06 749.555 376.328C749.867 375.596 750.023 374.72 750.023 373.7C750.023 372.68 749.867 371.804 749.555 371.072C749.255 370.34 748.835 369.782 748.295 369.398C747.767 369.002 747.155 368.804 746.459 368.804C745.775 368.804 745.163 369.002 744.623 369.398C744.083 369.782 743.657 370.34 743.345 371.072C743.045 371.804 742.895 372.68 742.895 373.7C742.895 374.72 743.045 375.596 743.345 376.328C743.657 377.06 744.083 377.624 744.623 378.02C745.163 378.416 745.775 378.614 746.459 378.614ZM753.632 380V378.704C754.46 378.056 755.246 377.402 755.99 376.742C756.746 376.082 757.418 375.428 758.006 374.78C758.606 374.12 759.074 373.478 759.41 372.854C759.758 372.218 759.932 371.612 759.932 371.036C759.932 370.628 759.86 370.25 759.716 369.902C759.572 369.554 759.344 369.272 759.032 369.056C758.72 368.828 758.294 368.714 757.754 368.714C757.25 368.714 756.824 368.828 756.476 369.056C756.128 369.284 755.864 369.59 755.684 369.974C755.516 370.346 755.432 370.76 755.432 371.216H753.704C753.716 370.352 753.902 369.62 754.262 369.02C754.622 368.42 755.108 367.964 755.72 367.652C756.332 367.34 757.028 367.184 757.808 367.184C758.6 367.184 759.29 367.334 759.878 367.634C760.466 367.922 760.922 368.348 761.246 368.912C761.57 369.464 761.732 370.142 761.732 370.946C761.732 371.522 761.618 372.098 761.39 372.674C761.162 373.238 760.85 373.79 760.454 374.33C760.07 374.87 759.638 375.392 759.158 375.896C758.678 376.388 758.18 376.856 757.664 377.3C757.16 377.744 756.68 378.146 756.224 378.506H762.11V380H753.632ZM769.716 380V377.426H763.38V376.022L769.428 367.4H771.498V375.86H773.298V377.426H771.498V380H769.716ZM765.342 375.86H769.806V369.38L765.342 375.86Z" fill="white"/>
<path opacity="0.2" d="M1227.06 380V378.704C1227.89 378.056 1228.68 377.402 1229.42 376.742C1230.18 376.082 1230.85 375.428 1231.44 374.78C1232.04 374.12 1232.5 373.478 1232.84 372.854C1233.19 372.218 1233.36 371.612 1233.36 371.036C1233.36 370.628 1233.29 370.25 1233.15 369.902C1233 369.554 1232.77 369.272 1232.46 369.056C1232.15 368.828 1231.72 368.714 1231.18 368.714C1230.68 368.714 1230.25 368.828 1229.91 369.056C1229.56 369.284 1229.29 369.59 1229.11 369.974C1228.95 370.346 1228.86 370.76 1228.86 371.216H1227.13C1227.15 370.352 1227.33 369.62 1227.69 369.02C1228.05 368.42 1228.54 367.964 1229.15 367.652C1229.76 367.34 1230.46 367.184 1231.24 367.184C1232.03 367.184 1232.72 367.334 1233.31 367.634C1233.9 367.922 1234.35 368.348 1234.68 368.912C1235 369.464 1235.16 370.142 1235.16 370.946C1235.16 371.522 1235.05 372.098 1234.82 372.674C1234.59 373.238 1234.28 373.79 1233.88 374.33C1233.5 374.87 1233.07 375.392 1232.59 375.896C1232.11 376.388 1231.61 376.856 1231.09 377.3C1230.59 377.744 1230.11 378.146 1229.65 378.506H1235.54V380H1227.06ZM1242.48 380.216C1241.35 380.216 1240.38 379.946 1239.56 379.406C1238.76 378.854 1238.14 378.092 1237.71 377.12C1237.27 376.136 1237.06 374.996 1237.06 373.7C1237.06 372.404 1237.27 371.27 1237.71 370.298C1238.14 369.314 1238.76 368.552 1239.56 368.012C1240.38 367.46 1241.35 367.184 1242.48 367.184C1243.59 367.184 1244.55 367.46 1245.36 368.012C1246.16 368.552 1246.78 369.314 1247.21 370.298C1247.64 371.27 1247.86 372.404 1247.86 373.7C1247.86 374.996 1247.64 376.136 1247.21 377.12C1246.78 378.092 1246.16 378.854 1245.36 379.406C1244.55 379.946 1243.59 380.216 1242.48 380.216ZM1242.46 378.614C1243.15 378.614 1243.77 378.416 1244.29 378.02C1244.83 377.624 1245.25 377.06 1245.55 376.328C1245.87 375.596 1246.02 374.72 1246.02 373.7C1246.02 372.68 1245.87 371.804 1245.55 371.072C1245.25 370.34 1244.83 369.782 1244.29 369.398C1243.77 369.002 1243.15 368.804 1242.46 368.804C1241.77 368.804 1241.16 369.002 1240.62 369.398C1240.08 369.782 1239.66 370.34 1239.34 371.072C1239.04 371.804 1238.89 372.68 1238.89 373.7C1238.89 374.72 1239.04 375.596 1239.34 376.328C1239.66 377.06 1240.08 377.624 1240.62 378.02C1241.16 378.416 1241.77 378.614 1242.46 378.614ZM1249.63 380V378.704C1250.46 378.056 1251.25 377.402 1251.99 376.742C1252.75 376.082 1253.42 375.428 1254.01 374.78C1254.61 374.12 1255.07 373.478 1255.41 372.854C1255.76 372.218 1255.93 371.612 1255.93 371.036C1255.93 370.628 1255.86 370.25 1255.72 369.902C1255.57 369.554 1255.34 369.272 1255.03 369.056C1254.72 368.828 1254.29 368.714 1253.75 368.714C1253.25 368.714 1252.82 368.828 1252.48 369.056C1252.13 369.284 1251.86 369.59 1251.68 369.974C1251.52 370.346 1251.43 370.76 1251.43 371.216H1249.7C1249.72 370.352 1249.9 369.62 1250.26 369.02C1250.62 368.42 1251.11 367.964 1251.72 367.652C1252.33 367.34 1253.03 367.184 1253.81 367.184C1254.6 367.184 1255.29 367.334 1255.88 367.634C1256.47 367.922 1256.92 368.348 1257.25 368.912C1257.57 369.464 1257.73 370.142 1257.73 370.946C1257.73 371.522 1257.62 372.098 1257.39 372.674C1257.16 373.238 1256.85 373.79 1256.45 374.33C1256.07 374.87 1255.64 375.392 1255.16 375.896C1254.68 376.388 1254.18 376.856 1253.66 377.3C1253.16 377.744 1252.68 378.146 1252.22 378.506H1258.11V380H1249.63ZM1264.58 380.216C1263.7 380.216 1262.94 380.06 1262.29 379.748C1261.64 379.424 1261.13 378.986 1260.76 378.434C1260.39 377.882 1260.17 377.264 1260.09 376.58H1261.84C1261.97 377.192 1262.28 377.696 1262.76 378.092C1263.24 378.488 1263.85 378.686 1264.59 378.686C1265.13 378.686 1265.6 378.554 1266 378.29C1266.39 378.026 1266.7 377.672 1266.92 377.228C1267.14 376.784 1267.26 376.286 1267.26 375.734C1267.26 375.158 1267.14 374.66 1266.92 374.24C1266.7 373.808 1266.39 373.472 1266 373.232C1265.6 372.992 1265.15 372.872 1264.63 372.872C1264.01 372.872 1263.47 373.016 1263.01 373.304C1262.55 373.58 1262.22 373.946 1262.02 374.402H1260.29L1261.35 367.4H1268.12V368.966H1262.72L1262.06 372.494C1262.34 372.17 1262.73 371.906 1263.21 371.702C1263.7 371.486 1264.26 371.378 1264.88 371.378C1265.52 371.378 1266.09 371.492 1266.59 371.72C1267.1 371.936 1267.53 372.242 1267.89 372.638C1268.25 373.034 1268.52 373.496 1268.7 374.024C1268.89 374.552 1268.99 375.116 1268.99 375.716C1268.99 376.34 1268.88 376.928 1268.68 377.48C1268.48 378.02 1268.18 378.5 1267.8 378.92C1267.41 379.328 1266.95 379.646 1266.41 379.874C1265.87 380.102 1265.26 380.216 1264.58 380.216Z" fill="white"/>
</svg>
